HIERARCHY
ROOT Hips
{
 OFFSET 0.000000 0.000000 0.000000
 CHANNELS 6 Xposition Yposition Zposition Yrotation Xrotation Zrotation
 JOINT Chest
 {
  OFFSET 0.000000 9.585900 0.002600
  CHANNELS 3 Yrotation Xrotation Zrotation
  JOINT Chest2
  {
   OFFSET 0.000000 9.601200 -0.005300
   CHANNELS 3 Yrotation Xrotation Zrotation
   JOINT Chest3
   {
    OFFSET 0.000000 9.561800 0.000000
    CHANNELS 3 Yrotation Xrotation Zrotation
    JOINT Chest4
    {
     OFFSET 0.000000 9.552100 0.000000
     CHANNELS 3 Yrotation Xrotation Zrotation
     JOINT Neck
     {
      OFFSET 0.000000 14.453000 0.000000
      CHANNELS 3 Yrotation Xrotation Zrotation
      JOINT Head
      {
       OFFSET 0.000000 8.936500 -0.011300
       CHANNELS 3 Yrotation Xrotation Zrotation
       End Site
       {
        OFFSET 0.000000 17.073600 -0.006000
       }
      }
     }
     JOINT RightCollar
     {
      OFFSET -2.921100 9.558500 0.000000
      CHANNELS 3 Yrotation Xrotation Zrotation
      JOINT RightShoulder
      {
       OFFSET -13.519700 0.000000 0.000000
       CHANNELS 3 Yrotation Xrotation Zrotation
       JOINT RightElbow
       {
        OFFSET 0.000000 -29.696600 0.000000
        CHANNELS 3 Yrotation Xrotation Zrotation
        JOINT RightWrist
        {
         OFFSET 0.000000 -24.004700 0.000000
         CHANNELS 3 Yrotation Xrotation Zrotation
         End Site
         {
          OFFSET 0.000000 -17.728500 0.000000
         }
        }
       }
      }
     }
     JOINT LeftCollar
     {
      OFFSET 2.921100 9.558500 0.000000
      CHANNELS 3 Yrotation Xrotation Zrotation
      JOINT LeftShoulder
      {
       OFFSET 13.519700 0.000000 0.000000
       CHANNELS 3 Yrotation Xrotation Zrotation
       JOINT LeftElbow
       {
        OFFSET 0.000000 -29.696600 0.000000
        CHANNELS 3 Yrotation Xrotation Zrotation
        JOINT LeftWrist
        {
         OFFSET 0.000000 -24.004700 0.000000
         CHANNELS 3 Yrotation Xrotation Zrotation
         End Site
         {
          OFFSET 0.000000 -17.728500 0.000000
         }
        }
       }
      }
     }
    }
   }
  }
 }
 JOINT RightHip
 {
  OFFSET -7.771700 -0.012900 -0.001300
  CHANNELS 3 Yrotation Xrotation Zrotation
  JOINT RightKnee
  {
   OFFSET 0.000000 -40.869800 0.001200
   CHANNELS 3 Yrotation Xrotation Zrotation
   JOINT RightAnkle
   {
    OFFSET 0.000000 -39.717900 0.002100
    CHANNELS 3 Yrotation Xrotation Zrotation
    JOINT RightToe
    {
     OFFSET 0.000000 -4.965400 11.033500
     CHANNELS 3 Yrotation Xrotation Zrotation
     End Site
     {
      OFFSET 0.000000 -1.423100 5.872300
     }
    }
   }
  }
 }
 JOINT LeftHip
 {
  OFFSET 7.771700 -0.012900 -0.001300
  CHANNELS 3 Yrotation Xrotation Zrotation
  JOINT LeftKnee
  {
   OFFSET 0.000000 -40.869800 0.001200
   CHANNELS 3 Yrotation Xrotation Zrotation
   JOINT LeftAnkle
   {
    OFFSET 0.000000 -39.717900 0.002100
    CHANNELS 3 Yrotation Xrotation Zrotation
    JOINT LeftToe
    {
     OFFSET 0.000000 -4.965400 11.033500
     CHANNELS 3 Yrotation Xrotation Zrotation
     End Site
     {
      OFFSET 0.000000 -1.423100 5.872300
     }
    }
   }
  }
 }
}
MOTION
Frames: 13
Frame Time: 0.008333
0.000000 85.388000 0.000000 0.000000 -5.767877 0.000000 0.000000 11.653817 0.000000 0.000000 -5.885947 0.000000 0.000000 -0.000000 0.000000 0.000000 -0.000000 0.000000 0.000000 12.528835 0.000000 0.000000 0.711642 0.000000 0.000000 -0.000000 0.000000 0.000000 0.000000 -90.000000 0.000000 -2.309062 0.000000 0.000000 2.309062 0.000000 0.000000 -0.000000 0.000000 0.000000 -0.000000 90.000000 0.000000 -2.309062 0.000000 0.000000 2.309062 0.000000 0.000000 8.520406 0.000000 0.000000 1.905762 0.000000 -0.000000 -4.658285 0.000000 0.000000 -0.000000 0.000000 0.000000 8.520406 0.000000 0.000000 1.905762 0.000000 -0.000000 -4.658285 0.000000 0.000000 -0.000000 0.000000
-98.932967 49.516538 20.274588 174.416804 -30.880195 -4.722572 0.335066 19.250488 2.071123 0.019225 2.267631 0.169992 0.042837 3.804992 0.288374 0.327394 16.656341 1.309426 11.667302 20.541302 -1.812650 21.714516 3.500689 -6.573010 -2.610896 -2.332752 -4.284956 -2.258518 -7.938782 -13.318681 -58.665616 -57.797346 102.962056 4.297633 4.701680 -18.956348 1.625803 -0.681262 3.616729 14.213310 -8.613605 16.684888 127.061676 -64.932130 -148.619543 2.154930 7.230029 4.572675 -9.536497 -52.550324 -2.013415 -136.201883 82.562347 -123.069958 -30.435507 -4.158099 -6.042620 -0.135712 -12.476588 0.927995 -16.407620 -55.106168 22.923676 -77.655689 66.382228 -81.794133 30.641274 5.949348 14.085885 -0.030087 -0.662220 -0.015269
-98.932695 49.517500 20.265342 174.423942 -30.905118 -4.753697 0.336607 19.251201 2.095633 0.020649 2.269058 0.171413 0.041135 3.797931 0.288818 0.325082 16.616177 1.322245 11.690751 20.741158 -1.758066 21.719332 3.793295 -6.456757 -2.583968 -2.286500 -4.251040 -2.193464 -7.912515 -13.406836 -58.825954 -57.967839 103.208890 4.467269 4.524728 -18.339869 1.631150 -0.616662 3.605390 15.056676 -8.862826 16.546699 128.504299 -64.442506 -149.956763 2.310521 6.595847 4.820999 -9.558022 -52.517425 -1.990748 -136.254230 82.558647 -123.121570 -30.413498 -4.176611 -6.034588 -0.154856 -12.460005 0.929751 -16.415442 -55.090835 22.929834 -77.711763 66.391351 -81.833579 30.684001 6.012873 14.098745 -0.054652 -0.739839 -0.024882
-98.937011 49.516068 20.258641 174.430677 -30.906214 -4.759630 0.329721 19.232614 2.093163 0.023216 2.268342 0.178575 0.038454 3.768842 0.289853 0.322757 16.635473 1.329763 11.700111 20.910556 -1.709379 21.705037 4.096613 -6.343482 -2.569747 -2.265194 -4.237942 -2.145017 -7.897612 -13.443624 -58.985111 -58.175017 103.452445 4.642801 4.344898 -17.696041 1.648138 -0.619283 3.599210 15.863625 -9.118224 16.361003 128.663990 -63.805856 -150.187314 2.742313 5.857555 5.335713 -9.543273 -52.511520 -2.011648 -136.302684 82.561442 -123.157880 -30.416189 -4.183037 -6.042893 -0.155940 -12.456483 0.943273 -16.418959 -55.093654 22.920604 -77.735136 66.399049 -81.852846 30.688498 6.005832 14.101724 -0.058045 -0.738941 -0.029257
-98.942606 49.516292 20.249137 174.445899 -30.926385 -4.758266 0.314522 19.235332 2.084135 0.028618 2.268289 0.187170 0.034957 3.770413 0.287575 0.319212 16.626094 1.340306 11.696578 21.080007 -1.668089 21.669713 4.399572 -6.240425 -2.557245 -2.246449 -4.229825 -2.116382 -7.881264 -13.457868 -59.138978 -58.405680 103.689240 4.828242 4.165784 -17.036202 1.695644 -0.650812 3.598871 16.571580 -9.367878 16.116111 127.737488 -63.059745 -149.459144 3.413450 5.028241 6.077162 -9.486423 -52.488200 -2.078501 -136.417054 82.556199 -123.249538 -30.402251 -4.194068 -6.045554 -0.174491 -12.451286 0.961820 -16.409129 -55.077186 22.883430 -77.764917 66.405077 -81.879771 30.688258 5.990544 14.097469 -0.057691 -0.732577 -0.030036
-98.952255 49.513962 20.243744 174.476679 -30.917114 -4.737758 0.293010 19.197815 2.074656 0.015123 2.286132 0.173774 0.030040 3.777099 0.281224 0.325648 16.611242 1.360581 11.680724 21.245173 -1.636582 21.615592 4.694712 -6.152719 -2.515048 -2.209016 -4.155730 -2.131501 -7.882348 -13.520757 -59.292777 -58.644260 103.924738 5.026986 3.997712 -16.364669 1.738832 -0.683762 3.596781 17.169033 -9.627962 15.816331 125.995714 -62.220338 -147.988086 4.255562 4.104361 7.008637 -9.452466 -52.500537 -2.146752 -136.482216 82.547309 -123.317761 -30.414572 -4.186021 -6.038505 -0.163538 -12.463713 0.973049 -16.396300 -55.091856 22.819148 -77.774720 66.399890 -81.883251 30.650313 5.926170 14.075119 -0.034876 -0.659900 -0.020225
-98.958104 49.513718 20.236813 174.511988 -30.927383 -4.734041 0.272001 19.200883 2.070401 0.001170 2.291713 0.163606 0.035371 3.764017 0.293218 0.333467 16.614116 1.373707 11.653261 21.404965 -1.615148 21.544292 4.980218 -6.081141 -2.487737 -2.171793 -4.104968 -2.156269 -7.875617 -13.537370 -59.443041 -58.879099 104.151598 5.234968 3.843961 -15.687425 1.769025 -0.728569 3.593188 17.627793 -9.877688 15.477396 123.696598 -61.298934 -145.984444 5.207060 3.064900 8.069469 -9.433368 -52.491614 -2.195027 -136.612766 82.538394 -123.457502 -30.405522 -4.195901 -6.010709 -0.177669 -12.457292 0.971400 -16.404351 -55.081086 22.775560 -77.761917 66.403293 -81.872208 30.648743 5.924824 14.070893 -0.034495 -0.656273 -0.020635
-98.961493 49.513604 20.231260 174.558530 -30.935463 -4.743245 0.250540 19.203746 2.078216 -0.004919 2.290765 0.163052 0.034553 3.763086 0.295724 0.342418 16.613038 1.390992 11.615527 21.560775 -1.602319 21.457398 5.258661 -6.023300 -2.468118 -2.142857 -4.064778 -2.190111 -7.846731 -13.518592 -59.520014 -59.051824 104.256094 5.500542 3.684767 -14.968457 1.758678 -0.743411 3.575189 17.971032 -10.146369 15.120853 121.073785 -60.315477 -143.650961 6.242399 1.885739 9.185094 -9.412677 -52.480264 -2.245185 -136.710755 82.535363 -123.549662 -30.405508 -4.198758 -5.999558 -0.187747 -12.454833 0.982162 -16.436835 -55.068774 22.750220 -77.746397 66.407889 -81.856970 30.640910 5.922566 14.057406 -0.030279 -0.648631 -0.016231
-98.962022 49.512647 20.228570 174.581378 -30.933308 -4.750520 0.257574 19.194881 2.103568 -0.011070 2.290139 0.158752 0.035192 3.762618 0.299236 0.351957 16.610851 1.413268 11.570269 21.714440 -1.596375 21.359099 5.533499 -5.976525 -2.446459 -2.120853 -4.021820 -2.234078 -7.794865 -13.479525 -59.591249 -59.244613 104.351016 5.700981 3.542504 -14.279837 1.740621 -0.760775 3.552707 18.182545 -10.394997 14.773654 118.335643 -59.296687 -141.171200 7.339359 0.559197 10.312530 -9.387813 -52.477879 -2.275458 -136.745488 82.532222 -123.573387 -30.397980 -4.204573 -5.994580 -0.194891 -12.446918 0.990356 -16.465449 -55.066098 22.749609 -77.734668 66.412172 -81.840707 30.622132 5.922991 14.040796 -0.015581 -0.639272 -0.013111
-98.962108 49.511909 20.225976 174.603055 -30.935111 -4.751869 0.265862 19.191407 2.128713 0.019279 2.281777 0.185676 0.002344 3.768031 0.274251 0.362022 16.609951 1.437348 11.519148 21.866512 -1.596059 21.252204 5.805650 -5.938820 -2.421949 -2.107159 -3.978094 -2.284737 -7.724276 -13.421120 -59.637794 -59.424274 104.519334 5.827746 3.425563 -13.740444 1.731213 -0.871095 3.558800 18.267160 -10.536202 14.456435 115.636280 -58.271231 -138.666049 8.417045 -0.890180 11.443191 -9.334090 -52.470704 -2.332624 -136.776349 82.528057 -123.579392 -30.383850 -4.212258 -5.998851 -0.205689 -12.437368 1.005704 -16.493345 -55.059134 22.745431 -77.715344 66.417987 -81.828939 30.616554 5.918630 14.037366 -0.014773 -0.632871 -0.014890
-98.962879 49.510900 20.223751 174.626152 -30.936517 -4.742760 0.270120 19.189618 2.146624 0.011229 2.282476 0.178480 0.011080 3.762878 0.284401 0.379331 16.611970 1.463264 11.464123 22.017516 -1.601162 21.140111 6.076308 -5.910308 -2.398540 -2.103771 -3.933923 -2.334860 -7.639427 -13.343056 -59.533343 -59.506958 104.499397 5.964448 3.279213 -13.221286 1.680457 -0.964483 3.560004 18.306498 -10.695491 14.181952 113.089151 -57.268972 -136.215845 9.352995 -2.386307 12.593928 -9.296257 -52.470795 -2.389819 -136.822831 82.523732 -123.613474 -30.383311 -4.213317 -5.996158 -0.202387 -12.437746 1.009865 -16.518588 -55.052654 22.730447 -77.687716 66.423993 -81.815382 30.613085 5.915541 14.031208 -0.015285 -0.630391 -0.012630
-98.960277 49.509372 20.223172 174.634360 -30.932492 -4.740614 0.295986 19.181079 2.186576 -0.016214 2.285690 0.151090 0.038007 3.760525 0.311062 0.404385 16.610975 1.497074 11.408470 22.169829 -1.612056 21.028490 6.350372 -5.892148 -2.378816 -2.109586 -3.891240 -2.379038 -7.542219 -13.243535 -59.351112 -59.556781 104.376052 6.031834 3.128608 -12.758226 1.606230 -1.049248 3.555240 18.302987 -10.875078 13.954961 110.805223 -56.331326 -133.895473 10.051117 -3.825027 13.810343 -9.274732 -52.475141 -2.413324 -136.850329 82.518448 -123.632145 -30.374425 -4.214342 -5.989527 -0.207559 -12.437604 1.008145 -16.553347 -55.048380 22.743686 -77.663096 66.430366 -81.795399 30.602203 5.918268 14.014121 -0.008369 -0.626139 -0.009730
-98.959358 49.508390 20.221031 174.656641 -30.937270 -4.729227 0.288508 19.184517 2.187585 0.002440 2.284341 0.172252 0.075284 3.758822 0.352702 0.379236 16.613553 1.493408 11.357181 22.323909 -1.627868 20.926092 6.629305 -5.883821 -2.358969 -2.122124 -3.849601 -2.413242 -7.436930 -13.126012 -59.089728 -59.567059 104.171668 6.030412 2.978741 -12.392505 1.521700 -1.143030 3.551785 18.263012 -11.062649 13.768128 108.856391 -55.517019 -131.754055 10.495522 -5.120229 15.126005 -9.255687 -52.473480 -2.454186 -136.904925 82.507394 -123.693679 -30.357745 -4.218951 -5.970106 -0.215662 -12.435243 1.001992 -16.565663 -55.041462 22.719376 -77.637565 66.434340 -81.774791 30.595788 5.925543 14.001905 -0.002761 -0.626132 -0.006805
